HIERARCHY
ROOT joint_Root
{
	OFFSET 0.0 0.0 0.0
	CHANNELS 6 Xposition Yposition Zposition Zrotation Xrotation Yrotation 
	JOINT Hips
	{
		OFFSET -17.1583 93.1646 452.98
		CHANNELS 6 Xposition Yposition Zposition Zrotation Xrotation Yrotation 
		JOINT Spine
		{
			OFFSET 15.7357 0.0 0.0
			CHANNELS 6 Xposition Yposition Zposition Zrotation Xrotation Yrotation 
			JOINT Chest
			{
				OFFSET 8.98455 -0.406207 0.0
				CHANNELS 6 Xposition Yposition Zposition Zrotation Xrotation Yrotation 
				JOINT Neck
				{
					OFFSET 16.3773 0.0 0.0
					CHANNELS 6 Xposition Yposition Zposition Zrotation Xrotation Yrotation 
					JOINT Head
					{
						OFFSET 6.45672 0.0 0.0
						CHANNELS 6 Xposition Yposition Zposition Zrotation Xrotation Yrotation 
						End Site
						{
							OFFSET 0.0 0.0 0.0
						}
					}
				}
				JOINT Shoulder_L
				{
					OFFSET 12.9942 -0.242716 4.98039
					CHANNELS 6 Xposition Yposition Zposition Zrotation Xrotation Yrotation 
					JOINT UpperArm_L
					{
						OFFSET 5.34809 0.0 0.0
						CHANNELS 6 Xposition Yposition Zposition Zrotation Xrotation Yrotation 
						JOINT LowerArm_L
						{
							OFFSET 24.3286 1.87007e-05 0.0
							CHANNELS 6 Xposition Yposition Zposition Zrotation Xrotation Yrotation 
							JOINT Hand_L
							{
								OFFSET 22.2916 0.0 0.0
								CHANNELS 6 Xposition Yposition Zposition Zrotation Xrotation Yrotation 
								End Site
								{
									OFFSET 0.0 0.0 0.0
								}
							}
						}
					}
				}
				JOINT Shoulder_R
				{
					OFFSET 12.9945 -0.242716 -4.98039
					CHANNELS 6 Xposition Yposition Zposition Zrotation Xrotation Yrotation 
					JOINT UpperArm_R
					{
						OFFSET -5.34813 0.0 0.0
						CHANNELS 6 Xposition Yposition Zposition Zrotation Xrotation Yrotation 
						JOINT LowerArm_R
						{
							OFFSET -24.3289 0.000322201 0.0
							CHANNELS 6 Xposition Yposition Zposition Zrotation Xrotation Yrotation 
							JOINT Hand_R
							{
								OFFSET -22.2915 -0.000108084 0.0
								CHANNELS 6 Xposition Yposition Zposition Zrotation Xrotation Yrotation 
								End Site
								{
									OFFSET 0.0 0.0 0.0
								}
							}
						}
					}
				}
			}
		}
		JOINT UpperLeg_L
		{
			OFFSET -2.19248 -6.46944 0.0
			CHANNELS 6 Xposition Yposition Zposition Zrotation Xrotation Yrotation 
			JOINT LowerLeg_L
			{
				OFFSET 39.0811 0.0 -1.23785e-05
				CHANNELS 6 Xposition Yposition Zposition Zrotation Xrotation Yrotation 
				JOINT Foot_L
				{
					OFFSET 40.9854 0.0 -1.26872e-05
					CHANNELS 6 Xposition Yposition Zposition Zrotation Xrotation Yrotation 
					JOINT Toes_L
					{
						OFFSET 11.7543 0.0 0.0
						CHANNELS 6 Xposition Yposition Zposition Zrotation Xrotation Yrotation 
						End Site
						{
							OFFSET 0.0 0.0 0.0
						}
					}
				}
			}
		}
		JOINT UpperLeg_R
		{
			OFFSET -2.19251 6.46944 0.0
			CHANNELS 6 Xposition Yposition Zposition Zrotation Xrotation Yrotation 
			JOINT LowerLeg_R
			{
				OFFSET -39.0811 -0.00228153 -0.0401928
				CHANNELS 6 Xposition Yposition Zposition Zrotation Xrotation Yrotation 
				JOINT Foot_R
				{
					OFFSET -40.9854 0.0 0.0
					CHANNELS 6 Xposition Yposition Zposition Zrotation Xrotation Yrotation 
					JOINT Toes_R
					{
						OFFSET -11.7543 0.0 0.0
						CHANNELS 6 Xposition Yposition Zposition Zrotation Xrotation Yrotation 
						End Site
						{
							OFFSET 0.0 0.0 0.0
						}
					}
				}
			}
		}
	}
}
MOTION
Frames:	6
Frame Time:	0.0333333
0.000000 0.000000 0.000000 0.000000 0.000000 -0.000000 1.243880 92.751000 -0.704826 88.340100 -1.581210 6.539200 15.735700 0.000005 -0.000001 108.154000 85.560800 -107.924000 8.984550 -0.406207 -0.000000 0.666314 2.751100 0.442983 16.377300 -0.000001 -0.000001 -0.216360 1.908910 -2.736440 6.456720 -0.000001 -0.000000 1.953310 0.147846 3.302040 12.994200 -0.242716 4.980390 -91.756600 5.624860 -72.625200 5.348090 -0.000007 -0.000001 -73.203800 27.731900 -4.221380 24.328600 0.000019 0.000005 7.614870 22.613000 -19.172600 22.291600 -0.000001 0.000005 -2.785970 4.990270 7.525690 12.994500 -0.242716 -4.980390 88.960000 4.079560 -75.685000 -5.348130 -0.000001 -0.000004 -73.498300 31.191000 -4.059040 -24.328900 0.000322 -0.000009 0.502606 1.908780 -14.784300 -22.291500 -0.000108 -0.000004 2.155620 5.260340 1.157800 -2.192480 -6.469440 -0.000000 -174.538000 -3.867600 2.375830 39.081100 -0.000007 -0.000012 0.026253 -0.074751 19.351700 40.985400 -0.000006 -0.000013 0.326005 11.249700 -69.441600 11.754300 -0.000000 0.000003 -0.000970 0.182604 -9.169500 -2.192510 6.469440 -0.000001 175.046000 3.316900 -175.387000 -39.081100 -0.002282 -0.040193 0.021391 -0.069217 14.623800 -40.985400 0.000008 0.000006 -6.082160 8.314940 -68.210000 -11.754300 -0.000006 -0.000006 -0.010493 0.274956 -5.401630
0.000000 0.000000 0.000000 0.000000 0.000000 -0.000000 1.173790 92.763500 -0.739617 88.327100 -1.587650 6.257360 15.735700 0.000005 -0.000001 108.235000 85.565000 -107.934000 8.984550 -0.406207 -0.000000 0.652498 2.755930 0.587662 16.377300 -0.000001 -0.000001 -0.834182 1.841230 -2.741330 6.456720 -0.000001 -0.000000 1.579940 -0.034087 3.287950 12.994200 -0.242716 4.980390 -91.726500 5.577730 -72.770100 5.348090 -0.000007 -0.000001 -73.035600 27.451200 -4.404160 24.328600 0.000019 0.000005 7.624820 22.335800 -19.405100 22.291600 -0.000001 0.000005 -2.544080 4.989940 7.532830 12.994500 -0.242716 -4.980390 89.018000 3.903300 -75.866300 -5.348130 -0.000001 -0.000004 -73.506900 31.206200 -4.316390 -24.328900 0.000322 -0.000009 0.460956 1.774480 -14.595900 -22.291500 -0.000108 -0.000004 2.213150 5.259610 1.177320 -2.192480 -6.469440 -0.000000 -174.489000 -3.928040 2.098290 39.081100 -0.000007 -0.000012 0.025700 -0.073433 19.289100 40.985400 -0.000006 -0.000013 0.267382 11.279200 -69.418300 11.754300 -0.000000 0.000003 -0.000885 0.181390 -9.218870 -2.192510 6.469440 -0.000001 175.154000 3.235640 -175.690000 -39.081100 -0.002282 -0.040193 0.023085 -0.075785 14.609700 -40.985400 0.000008 0.000006 -6.026870 8.225990 -68.208400 -11.754300 -0.000006 -0.000006 -0.010424 0.274445 -5.422530
0.000000 0.000000 0.000000 0.000000 0.000000 -0.000000 1.092730 92.786000 -0.758672 88.310200 -1.636700 6.041530 15.735700 0.000005 -0.000001 108.237000 85.555200 -107.834000 8.984550 -0.406207 -0.000000 0.668760 2.756090 0.790810 16.377300 -0.000001 -0.000001 -1.429300 1.784320 -2.664860 6.456720 -0.000001 -0.000000 1.100700 -0.173645 3.344540 12.994200 -0.242716 4.980390 -91.709400 5.552530 -72.858300 5.348090 -0.000007 -0.000001 -72.847000 27.217700 -4.485180 24.328600 0.000019 0.000005 7.592530 21.935300 -19.637600 22.291600 -0.000001 0.000005 -2.349980 4.996810 7.387250 12.994500 -0.242716 -4.980390 89.080100 3.704430 -76.044300 -5.348130 -0.000001 -0.000004 -73.557800 31.032500 -4.542560 -24.328900 0.000322 -0.000009 0.420536 1.649220 -14.340700 -22.291500 -0.000108 -0.000004 2.401100 5.257270 1.239990 -2.192480 -6.469440 -0.000000 -174.404000 -4.056180 1.983540 39.081100 -0.000007 -0.000012 0.023429 -0.067647 19.103700 40.985400 -0.000006 -0.000013 0.205862 11.390600 -69.380000 11.754300 -0.000000 0.000003 -0.000890 0.181464 -9.215840 -2.192510 6.469440 -0.000001 175.253000 3.139450 -175.873000 -39.081100 -0.002282 -0.040193 0.022407 -0.073803 14.492200 -40.985400 0.000008 0.000006 -6.089510 8.150960 -68.123500 -11.754300 -0.000006 -0.000006 -0.010353 0.273928 -5.443700
0.000000 0.000000 0.000000 0.000000 0.000000 -0.000000 1.000770 92.800400 -0.772040 88.285200 -1.614670 5.791180 15.735700 0.000005 -0.000001 107.981000 85.551700 -107.455000 8.984550 -0.406207 -0.000000 0.685027 2.712930 1.035990 16.377300 -0.000001 -0.000001 -2.100400 1.714390 -2.492530 6.456720 -0.000001 -0.000000 0.650011 -0.253562 3.566070 12.994200 -0.242716 4.980390 -91.690600 5.536650 -72.990600 5.348090 -0.000007 -0.000001 -72.769800 26.154400 -4.504540 24.328600 0.000019 0.000005 7.743750 22.177000 -19.811400 22.291600 -0.000001 0.000005 -2.566640 5.012850 7.044620 12.994500 -0.242716 -4.980390 89.136500 3.520720 -76.210100 -5.348130 -0.000001 -0.000004 -73.559700 30.739800 -4.777780 -24.328900 0.000322 -0.000009 0.357883 1.438740 -14.009000 -22.291500 -0.000108 -0.000004 2.477660 5.258200 1.215210 -2.192480 -6.469440 -0.000000 -174.310000 -4.155340 1.767000 39.081100 -0.000007 -0.000012 0.021180 -0.061493 19.005600 40.985400 -0.000006 -0.000013 0.140642 11.500600 -69.353800 11.754300 -0.000000 0.000003 -0.000777 0.179809 -9.283100 -2.192510 6.469440 -0.000001 175.381000 3.115650 -176.104000 -39.081100 -0.002282 -0.040193 0.023858 -0.079753 14.433300 -40.985400 0.000008 0.000006 -5.972050 8.028250 -68.132700 -11.754300 -0.000006 -0.000006 -0.010401 0.274281 -5.429260
0.000000 0.000000 0.000000 0.000000 0.000000 -0.000000 0.921916 92.809700 -0.772636 88.283000 -1.649070 5.678310 15.735700 0.000005 -0.000001 107.696000 85.477200 -107.020000 8.984550 -0.406207 -0.000000 0.837323 2.707640 1.331480 16.377300 -0.000001 -0.000001 -2.850450 1.614990 -2.216780 6.456720 -0.000001 -0.000000 0.188731 -0.323126 3.843590 12.994200 -0.242716 4.980390 -91.685600 5.529690 -73.018400 5.348090 -0.000007 -0.000001 -72.974700 23.613400 -4.638890 24.328600 0.000019 0.000005 7.351860 21.708400 -19.229200 22.291600 -0.000001 0.000005 -2.471550 5.022340 6.840180 12.994500 -0.242716 -4.980390 89.194400 3.320240 -76.353700 -5.348130 -0.000001 -0.000004 -73.571500 30.060500 -5.039100 -24.328900 0.000322 -0.000009 0.297442 1.232330 -13.616600 -22.291500 -0.000108 -0.000004 2.567430 5.257800 1.225670 -2.192480 -6.469440 -0.000000 -174.226000 -4.324320 1.718160 39.081100 -0.000007 -0.000012 0.018725 -0.054692 18.899500 40.985400 -0.000006 -0.000013 0.091478 11.637700 -69.334300 11.754300 -0.000000 0.000003 -0.000783 0.179898 -9.279480 -2.192510 6.469440 -0.000001 175.477000 3.045070 -176.224000 -39.081100 -0.002282 -0.040193 0.025450 -0.085941 14.432800 -40.985400 0.000008 0.000006 -5.834770 7.934330 -68.177700 -11.754300 -0.000006 -0.000006 -0.010396 0.274241 -5.430880
0.000000 0.000000 0.000000 0.000000 0.000000 -0.000000 0.849002 92.824900 -0.806174 88.319200 -1.624680 5.441980 15.735700 0.000005 -0.000001 107.474000 85.432300 -106.624000 8.984550 -0.406207 -0.000000 0.929882 2.691300 1.677170 16.377300 -0.000001 -0.000001 -3.557640 1.484660 -1.817680 6.456720 -0.000001 -0.000000 -0.382877 -0.353898 4.134440 12.994200 -0.242716 4.980390 -91.681600 5.519800 -73.027800 5.348090 -0.000007 -0.000001 -73.434800 19.601800 -5.059750 24.328600 0.000019 0.000005 6.172910 20.049000 -17.508200 22.291600 -0.000001 0.000005 -1.759050 5.008400 7.140200 12.994500 -0.242716 -4.980390 89.229600 3.208320 -76.489300 -5.348130 -0.000001 -0.000004 -73.443500 29.216600 -5.276420 -24.328900 0.000322 -0.000009 0.272444 1.162550 -13.239300 -22.291500 -0.000108 -0.000004 2.870410 5.255740 1.280680 -2.192480 -6.469440 -0.000000 -174.219000 -4.407380 1.526170 39.081100 -0.000007 -0.000012 0.017694 -0.052094 18.760000 40.985400 -0.000006 -0.000013 0.041899 11.744900 -69.293000 11.754300 -0.000000 0.000003 -0.000864 0.181091 -9.231020 -2.192510 6.469440 -0.000001 175.532000 3.006270 -176.468000 -39.081100 -0.002282 -0.040193 0.027794 -0.095208 14.409800 -40.985400 0.000008 0.000006 -5.680020 7.820030 -68.198400 -11.754300 -0.000006 -0.000006 -0.010529 0.275217 -5.390940
